<?xml version="1.0" encoding="UTF-8" standalone="no"?>
<!DOCTYPE svg PUBLIC "-//W3C//DTD SVG 1.1//EN" "http://www.w3.org/Graphics/SVG/1.1/DTD/svg11.dtd">
<svg version="1.1" xmlns="http://www.w3.org/2000/svg" xmlns:xlink="http://www.w3.org/1999/xlink" preserveAspectRatio="xMidYMid meet" viewBox="0 0 640 640" width="640" height="640"><defs><path d="M0 640L0 320L320 320L320 640L0 640ZM320 320L320 0L640 0L640 320L320 320Z" id="b5bX80cACE"></path><path d="M0 640L80 560L80 640L0 640ZM160 640L240 560L240 640L160 640ZM80 640L160 560L160 640L80 640ZM80 560L160 480L160 560L80 560ZM80 480L160 400L160 480L80 480ZM240 400L320 400L240 480L240 400ZM80 400L160 320L160 400L80 400ZM400 320L400 161L480 161L480 320L560 320L560 241L640 241L640 640L240 640L320 560L320 320L240 400L160 400L240 320L80 320L80 560L0 560L0 0L320 0L320 161L400 161L320 241L400 241L321 320L400 320ZM480 241L560 161L560 241L480 241ZM560 81L480 161L480 1L640 1L640 81L560 81ZM560 161L640 81L640 161L560 161ZM320 81L400 1L480 1L400 81L320 81Z" id="a1upHRmF3y"></path><path d="M400 640L400 480L320 480L320 400L400 400L480 320L480 640L400 640ZM560 640L560 560L640 640L560 640ZM560 560L640 480L640 560L560 560ZM480 560L560 480L560 560L480 560ZM560 480L560 400L640 400L640 480L560 480ZM560 320L640 320L560 400L560 320ZM160 240L240 240L240 160L320 160L240 240L320 240L240 320L80 320L80 240L0 320L0 160L80 160L80 80L240 80L160 160L160 240ZM0 0L160 0L0 160L0 0ZM240 80L240 0L320 0L320 80L240 80Z" id="bxnml1NRq"></path></defs><g><g><g><use xlink:href="#b5bX80cACE" opacity="1" fill="#6db4d5" fill-opacity="1"></use><g><use xlink:href="#b5bX80cACE" opacity="1" fill-opacity="0" stroke="#000000" stroke-width="1" stroke-opacity="0"></use></g></g><g><use xlink:href="#a1upHRmF3y" opacity="1" fill="#c2f1ff" fill-opacity="1"></use><g><use xlink:href="#a1upHRmF3y" opacity="1" fill-opacity="0" stroke="#000000" stroke-width="1" stroke-opacity="0"></use></g></g><g><use xlink:href="#bxnml1NRq" opacity="1" fill="#6db4d5" fill-opacity="1"></use><g><use xlink:href="#bxnml1NRq" opacity="1" fill-opacity="0" stroke="#000000" stroke-width="1" stroke-opacity="0"></use></g></g></g></g></svg>