<?xml version="1.0" encoding="UTF-8" standalone="no"?>
<!DOCTYPE svg PUBLIC "-//W3C//DTD SVG 1.1//EN" "http://www.w3.org/Graphics/SVG/1.1/DTD/svg11.dtd">
<svg version="1.1" xmlns="http://www.w3.org/2000/svg" xmlns:xlink="http://www.w3.org/1999/xlink" preserveAspectRatio="xMidYMid meet" viewBox="0 0 640 640" width="640" height="640"><defs><path d="M0 0L640 0L640 640L0 640L0 0Z" id="cP8CwlvzR"></path><path d="M480 320L320 480L480 480L480 320Z" id="d299IwJsfI"></path><path d="M480 480L640 480L640 640L480 640L480 480Z" id="a3xIHDfty"></path><path d="M640 160L480 320L640 320L640 160Z" id="bqn0Te92r"></path><path d="M160 320L320 320L320 640L160 640L160 320Z" id="b1lEglBGaW"></path><path d="M0 640L160 480L0 480L0 640Z" id="bGUy2un9h"></path><path d="M0 480L160 320L0 320L0 480Z" id="cvkPtIoBh"></path><path d="M320 160L480 160L320 320L320 160ZM320 160L320 0L640 0L640 160L320 160Z" id="c1s7kJAnvn"></path><path d="M160 0L320 0L160 160L160 0ZM0 160L160 0L160 160L0 160Z" id="bbIGwVPM1"></path></defs><g><g><g><use xlink:href="#cP8CwlvzR" opacity="1" fill="#6db4d5" fill-opacity="1"></use></g><g><use xlink:href="#d299IwJsfI" opacity="1" fill="#c2f1ff" fill-opacity="1"></use></g><g><use xlink:href="#a3xIHDfty" opacity="1" fill="#c2f1ff" fill-opacity="1"></use></g><g><use xlink:href="#bqn0Te92r" opacity="1" fill="#c2f1ff" fill-opacity="1"></use></g><g><use xlink:href="#b1lEglBGaW" opacity="1" fill="#c2f1ff" fill-opacity="1"></use></g><g><use xlink:href="#bGUy2un9h" opacity="1" fill="#c2f1ff" fill-opacity="1"></use></g><g><use xlink:href="#cvkPtIoBh" opacity="1" fill="#c2f1ff" fill-opacity="1"></use></g><g><use xlink:href="#c1s7kJAnvn" opacity="1" fill="#c2f1ff" fill-opacity="1"></use></g><g><use xlink:href="#bbIGwVPM1" opacity="1" fill="#c2f1ff" fill-opacity="1"></use></g></g></g></svg>
