<?xml version="1.0" encoding="UTF-8" standalone="no"?>
<!DOCTYPE svg PUBLIC "-//W3C//DTD SVG 1.1//EN" "http://www.w3.org/Graphics/SVG/1.1/DTD/svg11.dtd">
<svg version="1.1" xmlns="http://www.w3.org/2000/svg" xmlns:xlink="http://www.w3.org/1999/xlink" preserveAspectRatio="xMidYMid meet" viewBox="0 0 640 640" width="640" height="640"><defs><path d="M0 0L640 0L640 640L0 640L0 0Z" id="a1OUHhbZDq"></path><path d="M320 640L160 640L160 160L320 0L320 0L320 640ZM160 320L0 320L0 160L160 160L160 160L160 320Z" id="bvYeqjVk5"></path><path d="M480 480L640 640L480 640L480 480Z" id="bdcjooIDz"></path><path d="M640 320L480 480L640 480L640 320Z" id="c31pjxyqK"></path><path d="M480 320L320 480L480 480L480 320Z" id="blLkTlGIv"></path><path d="M480 160L640 160L640 320L480 320L480 160Z" id="caWiEPmRoN"></path><path d="M480 160L640 0L480 0L480 160Z" id="d4Ye3kM4u"></path></defs><g><g><g><use xlink:href="#a1OUHhbZDq" opacity="1" fill="#c2f1ff" fill-opacity="1"></use></g><g><use xlink:href="#bvYeqjVk5" opacity="1" fill="#6db4d5" fill-opacity="1"></use></g><g><use xlink:href="#bdcjooIDz" opacity="1" fill="#6db4d5" fill-opacity="1"></use></g><g><use xlink:href="#c31pjxyqK" opacity="1" fill="#6db4d5" fill-opacity="1"></use></g><g><use xlink:href="#blLkTlGIv" opacity="1" fill="#6db4d5" fill-opacity="1"></use></g><g><use xlink:href="#caWiEPmRoN" opacity="1" fill="#6db4d5" fill-opacity="1"></use></g><g><use xlink:href="#d4Ye3kM4u" opacity="1" fill="#6db4d5" fill-opacity="1"></use></g></g></g></svg>
