<svg xmlns="http://www.w3.org/2000/svg" xmlns:xlink="http://www.w3.org/1999/xlink" width="640" height="640" preserveAspectRatio="xMidYMid meet" version="1.1" viewBox="0 0 640 640"><defs><path id="cP8CwlvzR" d="M0 0L640 0L640 640L0 640L0 0Z"/><path id="d299IwJsfI" d="M480 320L320 480L480 480L480 320Z"/><path id="a3xIHDfty" d="M480 480L640 480L640 640L480 640L480 480Z"/><path id="bqn0Te92r" d="M640 160L480 320L640 320L640 160Z"/><path id="b1lEglBGaW" d="M160 320L320 320L320 640L160 640L160 320Z"/><path id="bGUy2un9h" d="M0 640L160 480L0 480L0 640Z"/><path id="cvkPtIoBh" d="M0 480L160 320L0 320L0 480Z"/><path id="c1s7kJAnvn" d="M320 160L480 160L320 320L320 160ZM320 160L320 0L640 0L640 160L320 160Z"/><path id="bbIGwVPM1" d="M160 0L320 0L160 160L160 0ZM0 160L160 0L160 160L0 160Z"/></defs><g><g><g><use fill="#6db4d5" fill-opacity="1" opacity="1" xlink:href="#cP8CwlvzR"/></g><g><use fill="#c2f1ff" fill-opacity="1" opacity="1" xlink:href="#d299IwJsfI"/></g><g><use fill="#c2f1ff" fill-opacity="1" opacity="1" xlink:href="#a3xIHDfty"/></g><g><use fill="#c2f1ff" fill-opacity="1" opacity="1" xlink:href="#bqn0Te92r"/></g><g><use fill="#c2f1ff" fill-opacity="1" opacity="1" xlink:href="#b1lEglBGaW"/></g><g><use fill="#c2f1ff" fill-opacity="1" opacity="1" xlink:href="#bGUy2un9h"/></g><g><use fill="#c2f1ff" fill-opacity="1" opacity="1" xlink:href="#cvkPtIoBh"/></g><g><use fill="#c2f1ff" fill-opacity="1" opacity="1" xlink:href="#c1s7kJAnvn"/></g><g><use fill="#c2f1ff" fill-opacity="1" opacity="1" xlink:href="#bbIGwVPM1"/></g></g></g></svg>