<svg xmlns="http://www.w3.org/2000/svg" xmlns:xlink="http://www.w3.org/1999/xlink" width="640" height="640" preserveAspectRatio="xMidYMid meet" version="1.1" viewBox="0 0 640 640"><defs><path id="a1OUHhbZDq" d="M0 0L640 0L640 640L0 640L0 0Z"/><path id="bvYeqjVk5" d="M320 640L160 640L160 160L320 0L320 0L320 640ZM160 320L0 320L0 160L160 160L160 160L160 320Z"/><path id="bdcjooIDz" d="M480 480L640 640L480 640L480 480Z"/><path id="c31pjxyqK" d="M640 320L480 480L640 480L640 320Z"/><path id="blLkTlGIv" d="M480 320L320 480L480 480L480 320Z"/><path id="caWiEPmRoN" d="M480 160L640 160L640 320L480 320L480 160Z"/><path id="d4Ye3kM4u" d="M480 160L640 0L480 0L480 160Z"/></defs><g><g><g><use fill="#c2f1ff" fill-opacity="1" opacity="1" xlink:href="#a1OUHhbZDq"/></g><g><use fill="#6db4d5" fill-opacity="1" opacity="1" xlink:href="#bvYeqjVk5"/></g><g><use fill="#6db4d5" fill-opacity="1" opacity="1" xlink:href="#bdcjooIDz"/></g><g><use fill="#6db4d5" fill-opacity="1" opacity="1" xlink:href="#c31pjxyqK"/></g><g><use fill="#6db4d5" fill-opacity="1" opacity="1" xlink:href="#blLkTlGIv"/></g><g><use fill="#6db4d5" fill-opacity="1" opacity="1" xlink:href="#caWiEPmRoN"/></g><g><use fill="#6db4d5" fill-opacity="1" opacity="1" xlink:href="#d4Ye3kM4u"/></g></g></g></svg>