<svg xmlns="http://www.w3.org/2000/svg" xmlns:xlink="http://www.w3.org/1999/xlink" width="640" height="640" preserveAspectRatio="xMidYMid meet" version="1.1" viewBox="0 0 640 640"><defs><path id="b2dg2UBgM2" d="M640 0L640 640L0 640L0 0L640 0Z"/><path id="bfG9agi1f" d="M160 320L160 160L480 160L320 320L320 480L640 480L480 640L160 640L160 480L0 640L0 320L160 320Z"/><path id="br0ttWMQm" d="M320 0L0 0L0 320L320 0Z"/><path id="aKbrjQB6I" d="M640 0L640 160L480 160L480 0L640 0Z"/><path id="c256Ki9dfw" d="M640 320L480 320L480 480L640 320Z"/></defs><g><g><g><use fill="#c2f1ff" fill-opacity="1" opacity="1" xlink:href="#b2dg2UBgM2"/><g><use fill-opacity="0" stroke="#000" stroke-opacity="0" stroke-width="1" opacity="1" xlink:href="#b2dg2UBgM2"/></g></g><g><use fill="#6db4d5" fill-opacity="1" opacity="1" xlink:href="#bfG9agi1f"/><g><use fill-opacity="0" stroke="#000" stroke-opacity="0" stroke-width="1" opacity="1" xlink:href="#bfG9agi1f"/></g></g><g><use fill="#6db4d5" fill-opacity="1" opacity="1" xlink:href="#br0ttWMQm"/><g><use fill-opacity="0" stroke="#000" stroke-opacity="0" stroke-width="1" opacity="1" xlink:href="#br0ttWMQm"/></g></g><g><use fill="#6db4d5" fill-opacity="1" opacity="1" xlink:href="#aKbrjQB6I"/><g><use fill-opacity="0" stroke="#000" stroke-opacity="0" stroke-width="1" opacity="1" xlink:href="#aKbrjQB6I"/></g></g><g><use fill="#6db4d5" fill-opacity="1" opacity="1" xlink:href="#c256Ki9dfw"/><g><use fill-opacity="0" stroke="#000" stroke-opacity="0" stroke-width="1" opacity="1" xlink:href="#c256Ki9dfw"/></g></g></g></g></svg>