<?xml version="1.0" encoding="UTF-8" standalone="no"?>
<!DOCTYPE svg PUBLIC "-//W3C//DTD SVG 1.1//EN" "http://www.w3.org/Graphics/SVG/1.1/DTD/svg11.dtd">
<svg version="1.1" xmlns="http://www.w3.org/2000/svg" xmlns:xlink="http://www.w3.org/1999/xlink" preserveAspectRatio="xMidYMid meet" viewBox="0 0 640 640" width="640" height="640"><defs><path d="M640 0L640 640L0 640L0 0L640 0Z" id="b2dg2UBgM2"></path><path d="M160 320L160 160L480 160L320 320L320 480L640 480L480 640L160 640L160 480L0 640L0 320L160 320Z" id="bfG9agi1f"></path><path d="M320 0L0 0L0 320L320 0Z" id="br0ttWMQm"></path><path d="M640 0L640 160L480 160L480 0L640 0Z" id="aKbrjQB6I"></path><path d="M640 320L480 320L480 480L640 320Z" id="c256Ki9dfw"></path></defs><g><g><g><use xlink:href="#b2dg2UBgM2" opacity="1" fill="#c2f1ff" fill-opacity="1"></use><g><use xlink:href="#b2dg2UBgM2" opacity="1" fill-opacity="0" stroke="#000000" stroke-width="1" stroke-opacity="0"></use></g></g><g><use xlink:href="#bfG9agi1f" opacity="1" fill="#6db4d5" fill-opacity="1"></use><g><use xlink:href="#bfG9agi1f" opacity="1" fill-opacity="0" stroke="#000000" stroke-width="1" stroke-opacity="0"></use></g></g><g><use xlink:href="#br0ttWMQm" opacity="1" fill="#6db4d5" fill-opacity="1"></use><g><use xlink:href="#br0ttWMQm" opacity="1" fill-opacity="0" stroke="#000000" stroke-width="1" stroke-opacity="0"></use></g></g><g><use xlink:href="#aKbrjQB6I" opacity="1" fill="#6db4d5" fill-opacity="1"></use><g><use xlink:href="#aKbrjQB6I" opacity="1" fill-opacity="0" stroke="#000000" stroke-width="1" stroke-opacity="0"></use></g></g><g><use xlink:href="#c256Ki9dfw" opacity="1" fill="#6db4d5" fill-opacity="1"></use><g><use xlink:href="#c256Ki9dfw" opacity="1" fill-opacity="0" stroke="#000000" stroke-width="1" stroke-opacity="0"></use></g></g></g></g></svg>
