<svg xmlns="http://www.w3.org/2000/svg" xmlns:xlink="http://www.w3.org/1999/xlink" width="640" height="640" preserveAspectRatio="xMidYMid meet" version="1.1" viewBox="0 0 640 640"><defs><path id="b38HhBPqTP" d="M0 0L640 0L640 640L0 640L0 0Z"/><path id="a1NVd4Rl9J" d="M480 160L640 0L480 0L480 160Z"/><path id="deALJjs9g" d="M480 0L320 160L480 160L480 0Z"/><path id="b2SXWJuPEK" d="M480 320L640 160L480 160L480 320Z"/><path id="campkKyYP" d="M320 0L160 160L320 160L320 0Z"/><path id="b6euULVhzK" d="M320 160L160 320L320 320L320 160Z"/><path id="a8wAlMIec" d="M320 320L160 480L320 480L320 320Z"/><path id="d3K397oREE" d="M320 480L160 640L320 640L320 480Z"/><path id="d3yVZzs5ws" d="M160 480L0 640L160 640L160 480Z"/><path id="j2CnrTAxXD" d="M480 480L320 640L480 640L480 480Z"/><path id="auEyFBsSF" d="M640 480L480 640L640 640L640 480Z"/><path id="a1tcFfl41" d="M0 0L160 0L160 480L0 480L0 0Z"/></defs><g><g><g><use fill="#6db4d5" fill-opacity="1" opacity="1" xlink:href="#b38HhBPqTP"/></g><g><use fill="#c2f1ff" fill-opacity="1" opacity="1" xlink:href="#a1NVd4Rl9J"/></g><g><use fill="#c2f1ff" fill-opacity="1" opacity="1" xlink:href="#deALJjs9g"/></g><g><use fill="#c2f1ff" fill-opacity="1" opacity="1" xlink:href="#b2SXWJuPEK"/></g><g><use fill="#c2f1ff" fill-opacity="1" opacity="1" xlink:href="#campkKyYP"/></g><g><use fill="#c2f1ff" fill-opacity="1" opacity="1" xlink:href="#b6euULVhzK"/></g><g><use fill="#c2f1ff" fill-opacity="1" opacity="1" xlink:href="#a8wAlMIec"/></g><g><use fill="#c2f1ff" fill-opacity="1" opacity="1" xlink:href="#d3K397oREE"/></g><g><use fill="#c2f1ff" fill-opacity="1" opacity="1" xlink:href="#d3yVZzs5ws"/></g><g><use fill="#c2f1ff" fill-opacity="1" opacity="1" xlink:href="#j2CnrTAxXD"/></g><g><use fill="#c2f1ff" fill-opacity="1" opacity="1" xlink:href="#auEyFBsSF"/></g><g><use fill="#c2f1ff" fill-opacity="1" opacity="1" xlink:href="#a1tcFfl41"/></g></g></g></svg>