<?xml version="1.0" encoding="UTF-8" standalone="no"?>
<!DOCTYPE svg PUBLIC "-//W3C//DTD SVG 1.1//EN" "http://www.w3.org/Graphics/SVG/1.1/DTD/svg11.dtd">
<svg version="1.1" xmlns="http://www.w3.org/2000/svg" xmlns:xlink="http://www.w3.org/1999/xlink" preserveAspectRatio="xMidYMid meet" viewBox="0 0 640 640" width="640" height="640"><defs><path d="M0 0L640 0L640 640L0 640L0 0Z" id="bjnPyvEY8"></path><path d="M480 160L640 0L480 0L480 160Z" id="c2MUu5ffL"></path><path d="M480 0L320 160L480 160L480 0Z" id="aXj6rJXHr"></path><path d="M480 320L640 160L480 160L480 320Z" id="eHRb5lvZy"></path><path d="M320 0L160 160L320 160L320 0Z" id="c3MXph7JMw"></path><path d="M320 160L160 320L320 320L320 160Z" id="ayOtz2yfY"></path><path d="M320 320L160 480L320 480L320 320Z" id="e12ARusQQi"></path><path d="M320 480L160 640L320 640L320 480Z" id="fYLxqdqtN"></path><path d="M160 480L0 640L160 640L160 480Z" id="b2uC9tNNGV"></path><path d="M640 480L480 640L640 640L640 480Z" id="b1fzo7337H"></path><path d="M480 480L320 640L480 640L480 480Z" id="e3hMnc5LAL"></path><path d="M0 0L160 0L160 480L0 480L0 0Z" id="b7oLYkIUjm"></path></defs><g><g><g><use xlink:href="#bjnPyvEY8" opacity="1" fill="#242424" fill-opacity="1"></use></g><g><use xlink:href="#c2MUu5ffL" opacity="1" fill="#939393" fill-opacity="1"></use></g><g><use xlink:href="#aXj6rJXHr" opacity="1" fill="#939393" fill-opacity="1"></use></g><g><use xlink:href="#eHRb5lvZy" opacity="1" fill="#939393" fill-opacity="1"></use></g><g><use xlink:href="#c3MXph7JMw" opacity="1" fill="#656565" fill-opacity="1"></use></g><g><use xlink:href="#ayOtz2yfY" opacity="1" fill="#656565" fill-opacity="1"></use></g><g><use xlink:href="#e12ARusQQi" opacity="1" fill="#656565" fill-opacity="1"></use></g><g><use xlink:href="#fYLxqdqtN" opacity="1" fill="#656565" fill-opacity="1"></use></g><g><use xlink:href="#b2uC9tNNGV" opacity="1" fill="#656565" fill-opacity="1"></use></g><g><use xlink:href="#b1fzo7337H" opacity="1" fill="#939393" fill-opacity="1"></use></g><g><use xlink:href="#e3hMnc5LAL" opacity="1" fill="#939393" fill-opacity="1"></use></g><g><use xlink:href="#b7oLYkIUjm" opacity="1" fill="#656565" fill-opacity="1"></use></g></g></g></svg>
