<?xml version="1.0" encoding="UTF-8" standalone="no"?>
<!DOCTYPE svg PUBLIC "-//W3C//DTD SVG 1.1//EN" "http://www.w3.org/Graphics/SVG/1.1/DTD/svg11.dtd">
<svg version="1.1" xmlns="http://www.w3.org/2000/svg" xmlns:xlink="http://www.w3.org/1999/xlink" preserveAspectRatio="xMidYMid meet" viewBox="0 0 640 640" width="640" height="640"><defs><path d="M0 0L640 0L640 640L0 640L0 0Z" id="b1zcLqba32"></path><path d="M480 160L640 0L480 0L480 160Z" id="a1QReqcy31"></path><path d="M480 0L320 160L480 160L480 0Z" id="hKBgtkoA"></path><path d="M480 320L640 160L480 160L480 320Z" id="aHS82fu7o"></path><path d="M320 0L160 160L320 160L320 0Z" id="bA5bCHVfy"></path><path d="M320 160L160 320L320 320L320 160Z" id="c6HMX6ZHGs"></path><path d="M320 320L160 480L320 480L320 320Z" id="aNi6whJSV"></path><path d="M320 480L160 640L320 640L320 480Z" id="b3C9NNooE"></path><path d="M160 480L0 640L160 640L160 480Z" id="a1LecI2DC"></path><path d="M480 480L320 640L480 640L480 480Z" id="bupdFMCHq"></path><path d="M640 480L480 640L640 640L640 480Z" id="apyE5kAyd"></path><path d="M0 0L160 0L160 480L0 480L0 0Z" id="b1rRrUh6b9"></path></defs><g><g><g><use xlink:href="#b1zcLqba32" opacity="1" fill="#0035a9" fill-opacity="1"></use></g><g><use xlink:href="#a1QReqcy31" opacity="1" fill="#c2f1ff" fill-opacity="1"></use></g><g><use xlink:href="#hKBgtkoA" opacity="1" fill="#c2f1ff" fill-opacity="1"></use></g><g><use xlink:href="#aHS82fu7o" opacity="1" fill="#c2f1ff" fill-opacity="1"></use></g><g><use xlink:href="#bA5bCHVfy" opacity="1" fill="#c2f1ff" fill-opacity="1"></use></g><g><use xlink:href="#c6HMX6ZHGs" opacity="1" fill="#c2f1ff" fill-opacity="1"></use></g><g><use xlink:href="#aNi6whJSV" opacity="1" fill="#c2f1ff" fill-opacity="1"></use></g><g><use xlink:href="#b3C9NNooE" opacity="1" fill="#c2f1ff" fill-opacity="1"></use></g><g><use xlink:href="#a1LecI2DC" opacity="1" fill="#c2f1ff" fill-opacity="1"></use></g><g><use xlink:href="#bupdFMCHq" opacity="1" fill="#c2f1ff" fill-opacity="1"></use></g><g><use xlink:href="#apyE5kAyd" opacity="1" fill="#c2f1ff" fill-opacity="1"></use></g><g><use xlink:href="#b1rRrUh6b9" opacity="1" fill="#c2f1ff" fill-opacity="1"></use></g></g></g></svg>
