<svg xmlns="http://www.w3.org/2000/svg" xmlns:xlink="http://www.w3.org/1999/xlink" width="640" height="640" preserveAspectRatio="xMidYMid meet" version="1.1" viewBox="0 0 640 640"><defs><path id="b1zcLqba32" d="M0 0L640 0L640 640L0 640L0 0Z"/><path id="a1QReqcy31" d="M480 160L640 0L480 0L480 160Z"/><path id="hKBgtkoA" d="M480 0L320 160L480 160L480 0Z"/><path id="aHS82fu7o" d="M480 320L640 160L480 160L480 320Z"/><path id="bA5bCHVfy" d="M320 0L160 160L320 160L320 0Z"/><path id="c6HMX6ZHGs" d="M320 160L160 320L320 320L320 160Z"/><path id="aNi6whJSV" d="M320 320L160 480L320 480L320 320Z"/><path id="b3C9NNooE" d="M320 480L160 640L320 640L320 480Z"/><path id="a1LecI2DC" d="M160 480L0 640L160 640L160 480Z"/><path id="bupdFMCHq" d="M480 480L320 640L480 640L480 480Z"/><path id="apyE5kAyd" d="M640 480L480 640L640 640L640 480Z"/><path id="b1rRrUh6b9" d="M0 0L160 0L160 480L0 480L0 0Z"/></defs><g><g><g><use fill="#0035a9" fill-opacity="1" opacity="1" xlink:href="#b1zcLqba32"/></g><g><use fill="#c2f1ff" fill-opacity="1" opacity="1" xlink:href="#a1QReqcy31"/></g><g><use fill="#c2f1ff" fill-opacity="1" opacity="1" xlink:href="#hKBgtkoA"/></g><g><use fill="#c2f1ff" fill-opacity="1" opacity="1" xlink:href="#aHS82fu7o"/></g><g><use fill="#c2f1ff" fill-opacity="1" opacity="1" xlink:href="#bA5bCHVfy"/></g><g><use fill="#c2f1ff" fill-opacity="1" opacity="1" xlink:href="#c6HMX6ZHGs"/></g><g><use fill="#c2f1ff" fill-opacity="1" opacity="1" xlink:href="#aNi6whJSV"/></g><g><use fill="#c2f1ff" fill-opacity="1" opacity="1" xlink:href="#b3C9NNooE"/></g><g><use fill="#c2f1ff" fill-opacity="1" opacity="1" xlink:href="#a1LecI2DC"/></g><g><use fill="#c2f1ff" fill-opacity="1" opacity="1" xlink:href="#bupdFMCHq"/></g><g><use fill="#c2f1ff" fill-opacity="1" opacity="1" xlink:href="#apyE5kAyd"/></g><g><use fill="#c2f1ff" fill-opacity="1" opacity="1" xlink:href="#b1rRrUh6b9"/></g></g></g></svg>