<svg xmlns="http://www.w3.org/2000/svg" xmlns:xlink="http://www.w3.org/1999/xlink" width="640" height="640" preserveAspectRatio="xMidYMid meet" version="1.1" viewBox="0 0 640 640"><defs><path id="bjnPyvEY8" d="M0 0L640 0L640 640L0 640L0 0Z"/><path id="c2MUu5ffL" d="M480 160L640 0L480 0L480 160Z"/><path id="aXj6rJXHr" d="M480 0L320 160L480 160L480 0Z"/><path id="eHRb5lvZy" d="M480 320L640 160L480 160L480 320Z"/><path id="c3MXph7JMw" d="M320 0L160 160L320 160L320 0Z"/><path id="ayOtz2yfY" d="M320 160L160 320L320 320L320 160Z"/><path id="e12ARusQQi" d="M320 320L160 480L320 480L320 320Z"/><path id="fYLxqdqtN" d="M320 480L160 640L320 640L320 480Z"/><path id="b2uC9tNNGV" d="M160 480L0 640L160 640L160 480Z"/><path id="b1fzo7337H" d="M640 480L480 640L640 640L640 480Z"/><path id="e3hMnc5LAL" d="M480 480L320 640L480 640L480 480Z"/><path id="b7oLYkIUjm" d="M0 0L160 0L160 480L0 480L0 0Z"/></defs><g><g><g><use fill="#242424" fill-opacity="1" opacity="1" xlink:href="#bjnPyvEY8"/></g><g><use fill="#939393" fill-opacity="1" opacity="1" xlink:href="#c2MUu5ffL"/></g><g><use fill="#939393" fill-opacity="1" opacity="1" xlink:href="#aXj6rJXHr"/></g><g><use fill="#939393" fill-opacity="1" opacity="1" xlink:href="#eHRb5lvZy"/></g><g><use fill="#656565" fill-opacity="1" opacity="1" xlink:href="#c3MXph7JMw"/></g><g><use fill="#656565" fill-opacity="1" opacity="1" xlink:href="#ayOtz2yfY"/></g><g><use fill="#656565" fill-opacity="1" opacity="1" xlink:href="#e12ARusQQi"/></g><g><use fill="#656565" fill-opacity="1" opacity="1" xlink:href="#fYLxqdqtN"/></g><g><use fill="#656565" fill-opacity="1" opacity="1" xlink:href="#b2uC9tNNGV"/></g><g><use fill="#939393" fill-opacity="1" opacity="1" xlink:href="#b1fzo7337H"/></g><g><use fill="#939393" fill-opacity="1" opacity="1" xlink:href="#e3hMnc5LAL"/></g><g><use fill="#656565" fill-opacity="1" opacity="1" xlink:href="#b7oLYkIUjm"/></g></g></g></svg>